<?xml version="1.0" encoding="UTF-8"?> <svg xmlns="http://www.w3.org/2000/svg" width="101" height="55" viewBox="0 0 101 55" fill="none"><g clip-path="url(#clip0_2032_924)"><mask id="mask0_2032_924" style="mask-type:luminance" maskUnits="userSpaceOnUse" x="0" y="0" width="101" height="55"><path d="M0 0H100.949V55H0V0Z" fill="white"></path></mask><g mask="url(#mask0_2032_924)"><path fill-rule="evenodd" clip-rule="evenodd" d="M22.1751 25.5869L28.0232 11.9065L33.8365 25.5869V0.732422H18.7985L0.697266 40.2071H18.1023C20.3534 39.7662 22.3956 39.0584 24.2289 38.0837C27.5707 36.3432 30.1002 33.8717 31.8175 30.6691C32.7226 29.0215 33.3956 27.3274 33.8365 25.5869H22.1751ZM74.5644 25.5869V40.2071H58.865C61.116 39.7662 63.1466 39.0584 64.9568 38.0837C68.2985 36.3432 70.8397 33.8717 72.5802 30.6691C73.4852 29.0215 74.1466 27.3274 74.5644 25.5869ZM49.8492 9.64381C52.9821 9.64381 55.4072 10.3864 57.1245 11.8717C59.1435 13.6354 60.153 16.4666 60.153 20.3653C60.153 24.2989 59.2479 27.1533 57.4378 28.859C57.3449 28.9518 57.2405 29.0447 57.1245 29.1375C55.2795 30.6691 52.4251 31.435 48.5612 31.435H47.6909V9.64381H49.8492Z" fill="url(#paint0_radial_2032_924)"></path><path fill-rule="evenodd" clip-rule="evenodd" d="M75.1906 20.5394C75.1906 14.9234 73.2877 10.1312 69.4818 6.1628C66.813 3.37799 63.3784 1.56786 59.178 0.732422H82.9185C87.3974 0.732422 90.9132 1.85795 93.466 4.109C95.9955 6.36006 97.2603 9.16808 97.2603 12.5331C97.2603 16.2693 95.7634 19.1934 92.7698 21.3052C97.0398 26.1554 99.5809 32.4561 100.393 40.2071H82.2571C81.9322 35.2177 81.1896 31.5394 80.0292 29.1723C78.8689 26.782 77.0588 25.5869 74.5989 25.5869C74.9934 23.9624 75.1906 22.2799 75.1906 20.5394ZM40.0672 40.2071H33.8362V25.5869L40.0672 40.2071ZM17.9976 50.5805H19.4596V53.435C19.0883 53.7134 18.659 53.9339 18.1717 54.0963C17.6611 54.2356 17.1506 54.3052 16.64 54.3052C15.9206 54.3052 15.2708 54.1544 14.6906 53.8527C14.1105 53.551 13.6579 53.1217 13.333 52.5647C13.0081 52.0077 12.8457 51.3928 12.8457 50.7198C12.8457 50.0236 13.0081 49.397 13.333 48.84C13.6579 48.2831 14.1105 47.8537 14.6906 47.552C15.294 47.2504 15.9554 47.0995 16.6748 47.0995C17.3014 47.0995 17.8584 47.2039 18.3457 47.4128C18.8563 47.5985 19.274 47.8885 19.5989 48.2831L18.5546 49.2577C18.0672 48.724 17.4638 48.4571 16.7444 48.4571C16.3035 48.4571 15.909 48.5499 15.5609 48.7356C15.2128 48.9212 14.9459 49.1881 14.7603 49.5362C14.5746 49.8843 14.4818 50.2788 14.4818 50.7198C14.4818 51.1375 14.5746 51.5204 14.7603 51.8685C14.9459 52.1934 15.2128 52.4603 15.5609 52.6691C15.909 52.8548 16.3035 52.9476 16.7444 52.9476C17.2086 52.9476 17.6263 52.8432 17.9976 52.6343V50.5805ZM34.8457 54.2008L33.5229 52.2514H32.0261V54.2008H30.39V47.2039H33.4185C34.0451 47.2039 34.5904 47.3084 35.0546 47.5172C35.4955 47.7261 35.8436 48.0162 36.0989 48.3875C36.3541 48.7588 36.4818 49.2113 36.4818 49.7451C36.4586 50.2556 36.3309 50.6966 36.0989 51.0679C35.8436 51.4624 35.4839 51.7525 35.0198 51.9381L36.5862 54.2008H34.8457ZM34.8109 49.7451C34.8109 49.3506 34.6833 49.0489 34.428 48.84C34.1959 48.6312 33.8362 48.5267 33.3489 48.5267H32.0261V50.9634H33.3489C33.8362 50.9634 34.1959 50.859 34.428 50.6501C34.6833 50.4181 34.8109 50.1164 34.8109 49.7451ZM50.5451 54.3052C49.8257 54.3052 49.1759 54.1544 48.5957 53.8527C48.0155 53.5278 47.563 53.0985 47.2381 52.5647C46.89 52.0077 46.716 51.3812 46.716 50.685C46.716 50.012 46.89 49.397 47.2381 48.84C47.563 48.2831 48.0155 47.8537 48.5957 47.552C49.1759 47.2272 49.8257 47.0647 50.5451 47.0647C51.2877 47.0647 51.9491 47.2272 52.5292 47.552C53.0862 47.8537 53.5387 48.2831 53.8868 48.84C54.2117 49.397 54.3742 50.012 54.3742 50.685C54.3742 51.3812 54.2117 52.0077 53.8868 52.5647C53.5387 53.0985 53.0862 53.5278 52.5292 53.8527C51.9491 54.1544 51.2877 54.3052 50.5451 54.3052ZM50.5451 52.9476C50.9628 52.9476 51.3341 52.8432 51.659 52.6343C52.0071 52.4487 52.274 52.1934 52.4596 51.8685C52.6453 51.5204 52.7381 51.1259 52.7381 50.685C52.7381 50.2672 52.6453 49.8843 52.4596 49.5362C52.274 49.1881 52.0071 48.9212 51.659 48.7356C51.3341 48.5499 50.9628 48.4571 50.5451 48.4571C50.1273 48.4571 49.756 48.5499 49.4311 48.7356C49.1063 48.9212 48.851 49.1881 48.6653 49.5362C48.4565 49.8843 48.352 50.2672 48.352 50.685C48.352 51.1259 48.4565 51.5204 48.6653 51.8685C48.851 52.1934 49.1063 52.4487 49.4311 52.6343C49.756 52.8432 50.1273 52.9476 50.5451 52.9476ZM68.1242 54.3052C67.1263 54.3052 66.3489 54.0267 65.7919 53.4698C65.2349 52.936 64.9565 52.147 64.9565 51.1027V47.2039H66.5925V51.0679C66.5925 52.321 67.1147 52.9476 68.159 52.9476C68.6463 52.9476 69.0293 52.7968 69.3077 52.4951C69.563 52.1702 69.6906 51.6944 69.6906 51.0679V47.2039H71.2919V51.1027C71.2919 52.147 71.0134 52.936 70.4565 53.4698C69.8995 54.0267 69.1221 54.3052 68.1242 54.3052ZM85.3552 47.2039C85.9818 47.2039 86.5155 47.3084 86.9565 47.5172C87.4206 47.7261 87.7803 48.0162 88.0356 48.3875C88.2676 48.7588 88.3837 49.2113 88.3837 49.7451C88.3837 50.2556 88.2676 50.6966 88.0356 51.0679C87.7803 51.4624 87.4206 51.7641 86.9565 51.9729C86.5155 52.1586 85.9818 52.2514 85.3552 52.2514H83.928V54.2008H82.3267V47.2039H85.3552ZM85.2508 50.9286C85.7381 50.9286 86.1094 50.8242 86.3647 50.6153C86.62 50.4065 86.7476 50.1164 86.7476 49.7451C86.7476 49.3506 86.62 49.0489 86.3647 48.84C86.1094 48.6312 85.7381 48.5267 85.2508 48.5267H83.9628V50.9286H85.2508Z" fill="#1A1A1A"></path><path d="M4.03882 32.9318C9.22553 29.2419 15.6654 26.2482 22.8363 24.0204L28.023 11.9065L32.1654 21.6881C32.7224 21.5721 33.2793 21.4677 33.8363 21.3748V0.732422H18.7983L4.03882 32.9318ZM47.6907 9.64381V19.8432C51.8331 19.7039 56.0103 19.7736 60.1876 20.0869C60.1411 16.3506 59.12 13.6122 57.1243 11.8717C55.4302 10.3864 53.0167 9.64381 49.8838 9.64381H47.6907Z" fill="url(#paint1_radial_2032_924)"></path><path d="M69.4815 6.1628C73.2874 10.1312 75.1904 14.9234 75.1904 20.5394C75.1904 21.2124 75.1672 21.8738 75.1208 22.5236C85.7031 25.2039 94.0923 29.59 99.5227 34.9508C98.2695 29.5668 96.0185 25.0183 92.7695 21.3052C95.7632 19.1934 97.26 16.2693 97.26 12.5331C97.26 9.16808 95.9952 6.36006 93.4657 4.109C90.913 1.85795 87.3971 0.732422 82.9182 0.732422H59.1777C63.3782 1.56786 66.8128 3.37799 69.4815 6.1628Z" fill="url(#paint2_linear_2032_924)"></path></g></g><defs><radialGradient id="paint0_radial_2032_924" cx="0" cy="0" r="1" gradientUnits="userSpaceOnUse" gradientTransform="translate(0.697267 40.2047) rotate(-23.8017) scale(36.2107 36.2107)"><stop stop-color="#D71919"></stop><stop offset="1" stop-color="#9B0F19"></stop></radialGradient><radialGradient id="paint1_radial_2032_924" cx="0" cy="0" r="1" gradientUnits="userSpaceOnUse" gradientTransform="translate(33.8265 0.726853) rotate(89.9968) scale(24.8704 24.8704)"><stop stop-color="#EB2337"></stop><stop offset="1" stop-color="#C80314"></stop></radialGradient><linearGradient id="paint2_linear_2032_924" x1="83.7815" y1="0.739384" x2="99.5295" y2="34.9439" gradientUnits="userSpaceOnUse"><stop stop-color="#1A1A1A"></stop><stop offset="1" stop-color="#666666"></stop></linearGradient><clipPath id="clip0_2032_924"><rect width="101" height="55" fill="white"></rect></clipPath></defs></svg> 